<svg xmlns="http://www.w3.org/2000/svg" xmlns:xlink="http://www.w3.org/1999/xlink" width="500" zoomAndPan="magnify" viewBox="0 0 375 374.999991" height="500" preserveAspectRatio="xMidYMid meet" version="1.0"><defs><clipPath id="63149ab656"><path d="M 358.363281 101.859375 L 360 101.859375 L 360 103.3125 L 358.363281 103.3125 Z M 358.363281 101.859375 " clip-rule="nonzero"/></clipPath><clipPath id="7921a1bf32"><path d="M 359.980469 102.367188 C 359.296875 103.5625 358.617188 103.304688 358.445312 103.136719 C 358.273438 102.878906 358.445312 102.113281 358.617188 101.941406 C 358.871094 101.773438 359.808594 102.027344 359.808594 102.027344 " clip-rule="nonzero"/></clipPath><clipPath id="fb2cb26022"><path d="M 0.363281 0.859375 L 2 0.859375 L 2 2.3125 L 0.363281 2.3125 Z M 0.363281 0.859375 " clip-rule="nonzero"/></clipPath><clipPath id="30ff721b22"><path d="M 1.980469 1.367188 C 1.296875 2.5625 0.617188 2.304688 0.445312 2.136719 C 0.273438 1.878906 0.445312 1.113281 0.617188 0.941406 C 0.871094 0.773438 1.808594 1.027344 1.808594 1.027344 " clip-rule="nonzero"/></clipPath><clipPath id="350a96d301"><rect x="0" width="2" y="0" height="3"/></clipPath><clipPath id="2074077070"><path d="M 253.566406 40.835938 L 255.179688 40.835938 L 255.179688 42.257812 L 253.566406 42.257812 Z M 253.566406 40.835938 " clip-rule="nonzero"/></clipPath><clipPath id="b431206c7b"><path d="M 255.148438 41.347656 C 254.46875 42.539062 253.785156 42.285156 253.617188 42.027344 C 253.53125 41.855469 253.617188 41.089844 253.871094 40.917969 C 254.042969 40.75 254.980469 41.003906 254.980469 41.003906 " clip-rule="nonzero"/></clipPath><clipPath id="93fcf31389"><path d="M 0.566406 0.835938 L 2.179688 0.835938 L 2.179688 2.257812 L 0.566406 2.257812 Z M 0.566406 0.835938 " clip-rule="nonzero"/></clipPath><clipPath id="f73a7c474c"><path d="M 2.148438 1.347656 C 1.46875 2.539062 0.785156 2.285156 0.617188 2.027344 C 0.53125 1.855469 0.617188 1.089844 0.871094 0.917969 C 1.042969 0.75 1.980469 1.003906 1.980469 1.003906 " clip-rule="nonzero"/></clipPath><clipPath id="adecd73a19"><rect x="0" width="3" y="0" height="3"/></clipPath><clipPath id="59886edc8e"><path d="M 0.796875 107.824219 L 43.3125 107.824219 L 43.3125 156.480469 L 0.796875 156.480469 Z M 0.796875 107.824219 " clip-rule="nonzero"/></clipPath><clipPath id="986f55401c"><path d="M 43.3125 132.117188 L 0.796875 156.410156 L 0.796875 107.824219 Z M 43.3125 132.117188 " clip-rule="nonzero"/></clipPath><clipPath id="f598aab41f"><path d="M 0.796875 0.824219 L 43.3125 0.824219 L 43.3125 49.480469 L 0.796875 49.480469 Z M 0.796875 0.824219 " clip-rule="nonzero"/></clipPath><clipPath id="a7c6d6f117"><path d="M 43.3125 25.117188 L 0.796875 49.410156 L 0.796875 0.824219 Z M 43.3125 25.117188 " clip-rule="nonzero"/></clipPath><clipPath id="09166b59d2"><rect x="0" width="44" y="0" height="50"/></clipPath><clipPath id="793e03e986"><path d="M 156 0 L 360 0 L 360 147 L 156 147 Z M 156 0 " clip-rule="nonzero"/></clipPath><clipPath id="46cd4dd96e"><path d="M 182.582031 0 L 359.253906 102.496094 L 333.484375 146.917969 L 156.808594 44.417969 Z M 182.582031 0 " clip-rule="nonzero"/></clipPath><clipPath id="6f1467e812"><path d="M 0.71875 0 L 203.28125 0 L 203.28125 147 L 0.71875 147 Z M 0.71875 0 " clip-rule="nonzero"/></clipPath><clipPath id="824d40ed65"><path d="M 26.582031 0 L 203.253906 102.496094 L 177.484375 146.917969 L 0.808594 44.417969 Z M 26.582031 0 " clip-rule="nonzero"/></clipPath><clipPath id="6b194e4b5c"><rect x="0" width="204" y="0" height="147"/></clipPath><clipPath id="16bea883d8"><path d="M 159 193 L 238 193 L 238 270 L 159 270 Z M 159 193 " clip-rule="nonzero"/></clipPath><clipPath id="70c4816793"><path d="M 186.605469 184.109375 L 258.640625 224.464844 L 216.078125 300.4375 L 144.042969 260.082031 Z M 186.605469 184.109375 " clip-rule="nonzero"/></clipPath><clipPath id="b2481b7f39"><path d="M 237.390625 262.394531 L 202.875 193.222656 L 187.253906 221.105469 L 170.984375 211.992188 L 159.726562 232.085938 L 175.996094 241.203125 L 160.375 269.082031 Z M 237.390625 262.394531 " clip-rule="nonzero"/></clipPath><clipPath id="cd0528c0ba"><path d="M 0.601562 0.199219 L 78.601562 0.199219 L 78.601562 76.28125 L 0.601562 76.28125 Z M 0.601562 0.199219 " clip-rule="nonzero"/></clipPath><clipPath id="0c948d256e"><path d="M 27.605469 -8.890625 L 99.640625 31.464844 L 57.078125 107.4375 L -14.957031 67.082031 Z M 27.605469 -8.890625 " clip-rule="nonzero"/></clipPath><clipPath id="63bb449fb4"><path d="M 78.390625 69.394531 L 43.875 0.222656 L 28.253906 28.105469 L 11.984375 18.992188 L 0.726562 39.085938 L 16.996094 48.203125 L 1.375 76.082031 Z M 78.390625 69.394531 " clip-rule="nonzero"/></clipPath><clipPath id="549056fd9a"><rect x="0" width="79" y="0" height="77"/></clipPath><clipPath id="c7117059e6"><path d="M 0.71875 0 L 209 0 L 209 152 L 0.71875 152 Z M 0.71875 0 " clip-rule="nonzero"/></clipPath><clipPath id="5767b37f32"><path d="M 0.804688 107.761719 L 182.46875 0 L 208.671875 44.164062 L 27.007812 151.929688 Z M 0.804688 107.761719 " clip-rule="nonzero"/></clipPath><clipPath id="aa9085602f"><path d="M 0.71875 0 L 208.800781 0 L 208.800781 152 L 0.71875 152 Z M 0.71875 0 " clip-rule="nonzero"/></clipPath><clipPath id="2b6071bade"><path d="M 0.804688 107.761719 L 182.46875 0 L 208.671875 44.164062 L 27.007812 151.929688 Z M 0.804688 107.761719 " clip-rule="nonzero"/></clipPath><clipPath id="ab07d34a8a"><rect x="0" width="209" y="0" height="152"/></clipPath><clipPath id="e3a1342c73"><path d="M 0.71875 111 L 200 111 L 200 257 L 0.71875 257 Z M 0.71875 111 " clip-rule="nonzero"/></clipPath><clipPath id="250138f457"><path d="M 26.574219 111.875 L 199.027344 211.925781 L 173.257812 256.34375 L 0.800781 156.296875 Z M 26.574219 111.875 " clip-rule="nonzero"/></clipPath><clipPath id="27f3e5f4ee"><path d="M 0.71875 0.839844 L 199.199219 0.839844 L 199.199219 145.558594 L 0.71875 145.558594 Z M 0.71875 0.839844 " clip-rule="nonzero"/></clipPath><clipPath id="34e60f2805"><path d="M 26.574219 0.875 L 199.027344 100.925781 L 173.257812 145.34375 L 0.800781 45.296875 Z M 26.574219 0.875 " clip-rule="nonzero"/></clipPath><clipPath id="41faed9295"><rect x="0" width="200" y="0" height="146"/></clipPath><clipPath id="d25d043f20"><path d="M 278 55 L 364 55 L 364 165 L 278 165 Z M 278 55 " clip-rule="nonzero"/></clipPath><clipPath id="4caa4a7220"><path d="M 363.335938 164.355469 L 252.664062 100.148438 L 278.507812 55.597656 L 389.183594 119.808594 Z M 363.335938 164.355469 " clip-rule="nonzero"/></clipPath><clipPath id="7730be1d07"><path d="M 280.402344 116.242188 L 363.335938 164.355469 L 361.539062 103.769531 L 278.605469 55.65625 Z M 280.402344 116.242188 " clip-rule="nonzero"/></clipPath><clipPath id="d87435394d"><path d="M 0.398438 0.441406 L 85.359375 0.441406 L 85.359375 109.398438 L 0.398438 109.398438 Z M 0.398438 0.441406 " clip-rule="nonzero"/></clipPath><clipPath id="785f0a8ae3"><path d="M 85.335938 109.355469 L -25.335938 45.148438 L 0.507812 0.597656 L 111.183594 64.808594 Z M 85.335938 109.355469 " clip-rule="nonzero"/></clipPath><clipPath id="0cfba958f0"><path d="M 2.402344 61.242188 L 85.335938 109.355469 L 83.539062 48.769531 L 0.605469 0.65625 Z M 2.402344 61.242188 " clip-rule="nonzero"/></clipPath><clipPath id="fefeb93263"><rect x="0" width="86" y="0" height="110"/></clipPath><clipPath id="0e2d8ee758"><rect x="0" width="369" y="0" height="301"/></clipPath><clipPath id="ff775e4e83"><path d="M 10.410156 258.847656 L 12.058594 258.847656 L 12.058594 260.300781 L 10.410156 260.300781 Z M 10.410156 258.847656 " clip-rule="nonzero"/></clipPath><clipPath id="3dc46a7056"><path d="M 10.441406 259.789062 C 11.121094 258.597656 11.804688 258.851562 11.976562 259.023438 C 12.144531 259.277344 11.976562 260.046875 11.804688 260.214844 C 11.546875 260.386719 10.609375 260.132812 10.609375 260.132812 " clip-rule="nonzero"/></clipPath><clipPath id="4405e809a9"><path d="M 0.410156 0.847656 L 2.058594 0.847656 L 2.058594 2.300781 L 0.410156 2.300781 Z M 0.410156 0.847656 " clip-rule="nonzero"/></clipPath><clipPath id="3016a1531d"><path d="M 0.441406 1.789062 C 1.121094 0.597656 1.804688 0.851562 1.976562 1.023438 C 2.144531 1.277344 1.976562 2.046875 1.804688 2.214844 C 1.546875 2.386719 0.609375 2.132812 0.609375 2.132812 " clip-rule="nonzero"/></clipPath><clipPath id="d2f781035f"><rect x="0" width="3" y="0" height="3"/></clipPath><clipPath id="db24a52511"><path d="M 115.238281 319.902344 L 116.855469 319.902344 L 116.855469 321.320312 L 115.238281 321.320312 Z M 115.238281 319.902344 " clip-rule="nonzero"/></clipPath><clipPath id="55384d9e7f"><path d="M 115.269531 320.8125 C 115.953125 319.621094 116.632812 319.875 116.804688 320.132812 C 116.890625 320.300781 116.804688 321.070312 116.546875 321.238281 C 116.378906 321.410156 115.441406 321.152344 115.441406 321.152344 " clip-rule="nonzero"/></clipPath><clipPath id="d2a38cf142"><path d="M 0.238281 0.902344 L 1.855469 0.902344 L 1.855469 2.320312 L 0.238281 2.320312 Z M 0.238281 0.902344 " clip-rule="nonzero"/></clipPath><clipPath id="c88e44c355"><path d="M 0.269531 1.8125 C 0.953125 0.621094 1.632812 0.875 1.804688 1.132812 C 1.890625 1.300781 1.804688 2.070312 1.546875 2.238281 C 1.378906 2.410156 0.441406 2.152344 0.441406 2.152344 " clip-rule="nonzero"/></clipPath><clipPath id="5c5842e97b"><rect x="0" width="2" y="0" height="3"/></clipPath><clipPath id="c435968516"><path d="M 327.105469 205.683594 L 369.621094 205.683594 L 369.621094 254.339844 L 327.105469 254.339844 Z M 327.105469 205.683594 " clip-rule="nonzero"/></clipPath><clipPath id="94c212267a"><path d="M 327.105469 230.046875 L 369.621094 205.753906 L 369.621094 254.339844 Z M 327.105469 230.046875 " clip-rule="nonzero"/></clipPath><clipPath id="f6b2d36586"><path d="M 0.105469 0.683594 L 42.621094 0.683594 L 42.621094 49.339844 L 0.105469 49.339844 Z M 0.105469 0.683594 " clip-rule="nonzero"/></clipPath><clipPath id="0b202b7e55"><path d="M 0.105469 25.046875 L 42.621094 0.753906 L 42.621094 49.339844 Z M 0.105469 25.046875 " clip-rule="nonzero"/></clipPath><clipPath id="80bcb88662"><rect x="0" width="43" y="0" height="50"/></clipPath><clipPath id="367e8f2cef"><path d="M 11 215 L 214 215 L 214 363 L 11 363 Z M 11 215 " clip-rule="nonzero"/></clipPath><clipPath id="d7a52536fa"><path d="M 187.839844 362.15625 L 11.167969 259.660156 L 36.9375 215.242188 L 213.609375 317.738281 Z M 187.839844 362.15625 " clip-rule="nonzero"/></clipPath><clipPath id="711725c381"><path d="M 0.0390625 0.0390625 L 202.839844 0.0390625 L 202.839844 147.160156 L 0.0390625 147.160156 Z M 0.0390625 0.0390625 " clip-rule="nonzero"/></clipPath><clipPath id="952f3e31e8"><path d="M 176.839844 147.15625 L 0.167969 44.660156 L 25.9375 0.242188 L 202.609375 102.738281 Z M 176.839844 147.15625 " clip-rule="nonzero"/></clipPath><clipPath id="7cc82b3aa0"><rect x="0" width="203" y="0" height="148"/></clipPath><clipPath id="1fbaa9ad9f"><path d="M 133 93 L 211 93 L 211 169 L 133 169 Z M 133 93 " clip-rule="nonzero"/></clipPath><clipPath id="0bf19397a3"><path d="M 183.8125 178.046875 L 111.777344 137.691406 L 154.339844 61.71875 L 226.375 102.074219 Z M 183.8125 178.046875 " clip-rule="nonzero"/></clipPath><clipPath id="fe1058b85f"><path d="M 133.027344 99.761719 L 167.542969 168.933594 L 183.164062 141.050781 L 199.433594 150.164062 L 210.691406 130.070312 L 194.421875 120.957031 L 210.042969 93.074219 Z M 133.027344 99.761719 " clip-rule="nonzero"/></clipPath><clipPath id="53bfcd8d88"><path d="M 0 0 L 77.71875 0 L 77.71875 75.960938 L 0 75.960938 Z M 0 0 " clip-rule="nonzero"/></clipPath><clipPath id="eb7318045c"><path d="M 50.8125 85.046875 L -21.222656 44.691406 L 21.339844 -31.28125 L 93.375 9.074219 Z M 50.8125 85.046875 " clip-rule="nonzero"/></clipPath><clipPath id="4ab031d079"><path d="M 0.0273438 6.761719 L 34.542969 75.933594 L 50.164062 48.050781 L 66.433594 57.164062 L 77.691406 37.070312 L 61.421875 27.957031 L 77.042969 0.0742188 Z M 0.0273438 6.761719 " clip-rule="nonzero"/></clipPath><clipPath id="5ce6fc8d35"><rect x="0" width="78" y="0" height="76"/></clipPath><clipPath id="986af783d7"><path d="M 161 210 L 370 210 L 370 363 L 161 363 Z M 161 210 " clip-rule="nonzero"/></clipPath><clipPath id="6862acfa77"><path d="M 369.613281 254.394531 L 187.949219 362.160156 L 161.75 317.992188 L 343.414062 210.226562 Z M 369.613281 254.394531 " clip-rule="nonzero"/></clipPath><clipPath id="5bd55d47c8"><path d="M 0.519531 0 L 208.839844 0 L 208.839844 152.160156 L 0.519531 152.160156 Z M 0.519531 0 " clip-rule="nonzero"/></clipPath><clipPath id="289908b716"><path d="M 208.613281 44.394531 L 26.949219 152.160156 L 0.75 107.992188 L 182.414062 0.226562 Z M 208.613281 44.394531 " clip-rule="nonzero"/></clipPath><clipPath id="3d274b5a0b"><rect x="0" width="209" y="0" height="153"/></clipPath><clipPath id="8df8ebc832"><path d="M 171 105 L 370 105 L 370 251 L 171 251 Z M 171 105 " clip-rule="nonzero"/></clipPath><clipPath id="dd1bdedc5c"><path d="M 343.847656 250.285156 L 171.390625 150.234375 L 197.160156 105.816406 L 369.617188 205.863281 Z M 343.847656 250.285156 " clip-rule="nonzero"/></clipPath><clipPath id="0605025f8f"><path d="M 0.359375 0.601562 L 198.839844 0.601562 L 198.839844 145.320312 L 0.359375 145.320312 Z M 0.359375 0.601562 " clip-rule="nonzero"/></clipPath><clipPath id="d78778162d"><path d="M 172.847656 145.285156 L 0.390625 45.234375 L 26.160156 0.816406 L 198.617188 100.863281 Z M 172.847656 145.285156 " clip-rule="nonzero"/></clipPath><clipPath id="fa8f3523d7"><rect x="0" width="199" y="0" height="146"/></clipPath><clipPath id="f5461dcdc0"><path d="M 7 197 L 92 197 L 92 307 L 7 307 Z M 7 197 " clip-rule="nonzero"/></clipPath><clipPath id="74b634c871"><path d="M 7.082031 197.804688 L 117.757812 262.015625 L 91.910156 306.5625 L -18.761719 242.351562 Z M 7.082031 197.804688 " clip-rule="nonzero"/></clipPath><clipPath id="c98512a1a4"><path d="M 90.015625 245.921875 L 7.082031 197.804688 L 8.882812 258.390625 L 91.816406 306.507812 Z M 90.015625 245.921875 " clip-rule="nonzero"/></clipPath><clipPath id="5999d32895"><path d="M 0 0.761719 L 84.921875 0.761719 L 84.921875 109.71875 L 0 109.71875 Z M 0 0.761719 " clip-rule="nonzero"/></clipPath><clipPath id="de1ad0e548"><path d="M 0.0820312 0.804688 L 110.757812 65.015625 L 84.910156 109.5625 L -25.761719 45.351562 Z M 0.0820312 0.804688 " clip-rule="nonzero"/></clipPath><clipPath id="22da3110d6"><path d="M 83.015625 48.921875 L 0.0820312 0.804688 L 1.882812 61.390625 L 84.816406 109.507812 Z M 83.015625 48.921875 " clip-rule="nonzero"/></clipPath><clipPath id="da70f3cd8e"><rect x="0" width="85" y="0" height="110"/></clipPath></defs><g transform="matrix(1, 0, 0, 1, 6, 0)"><g clip-path="url(#0e2d8ee758)"><g clip-path="url(#63149ab656)"><g clip-path="url(#7921a1bf32)"><g transform="matrix(1, 0, 0, 1, 358, 101)"><g clip-path="url(#350a96d301)"><g clip-path="url(#fb2cb26022)"><g clip-path="url(#30ff721b22)"><rect x="-500.5" width="648" fill="#2472c8" y="-237.499997" height="647.999984" fill-opacity="1"/></g></g></g></g></g></g><g clip-path="url(#2074077070)"><g clip-path="url(#b431206c7b)"><g transform="matrix(1, 0, 0, 1, 253, 40)"><g clip-path="url(#adecd73a19)"><g clip-path="url(#93fcf31389)"><g clip-path="url(#f73a7c474c)"><rect x="-395.5" width="648" fill="#2472c8" y="-176.499997" height="647.999984" fill-opacity="1"/></g></g></g></g></g></g><g clip-path="url(#59886edc8e)"><g clip-path="url(#986f55401c)"><g transform="matrix(1, 0, 0, 1, 0, 107)"><g clip-path="url(#09166b59d2)"><g clip-path="url(#f598aab41f)"><g clip-path="url(#a7c6d6f117)"><path fill="#2472c8" d="M 43.3125 0.824219 L 43.3125 49.480469 L 0.796875 49.480469 L 0.796875 0.824219 Z M 43.3125 0.824219 " fill-opacity="1" fill-rule="nonzero"/></g></g></g></g></g></g><g clip-path="url(#793e03e986)"><g clip-path="url(#46cd4dd96e)"><g transform="matrix(1, 0, 0, 1, 156, 0)"><g clip-path="url(#6b194e4b5c)"><g clip-path="url(#6f1467e812)"><g clip-path="url(#824d40ed65)"><path fill="#2472c8" d="M 26.582031 0 L 203.21875 102.476562 L 177.449219 146.898438 L 0.808594 44.417969 Z M 26.582031 0 " fill-opacity="1" fill-rule="nonzero"/></g></g></g></g></g></g><g clip-path="url(#16bea883d8)"><g clip-path="url(#70c4816793)"><g clip-path="url(#b2481b7f39)"><g transform="matrix(1, 0, 0, 1, 159, 193)"><g clip-path="url(#549056fd9a)"><g clip-path="url(#cd0528c0ba)"><g clip-path="url(#0c948d256e)"><g clip-path="url(#63bb449fb4)"><path fill="#2472c8" d="M 27.605469 -8.890625 L 99.640625 31.464844 L 57.078125 107.4375 L -14.957031 67.082031 Z M 27.605469 -8.890625 " fill-opacity="1" fill-rule="nonzero"/></g></g></g></g></g></g></g></g><g clip-path="url(#c7117059e6)"><g clip-path="url(#5767b37f32)"><g><g clip-path="url(#ab07d34a8a)"><g clip-path="url(#aa9085602f)"><g clip-path="url(#2b6071bade)"><path fill="#2472c8" d="M 0.804688 107.761719 L 182.480469 -0.0078125 L 208.679688 44.160156 L 27.007812 151.929688 Z M 0.804688 107.761719 " fill-opacity="1" fill-rule="nonzero"/></g></g></g></g></g></g><g clip-path="url(#e3a1342c73)"><g clip-path="url(#250138f457)"><g transform="matrix(1, 0, 0, 1, 0, 111)"><g clip-path="url(#41faed9295)"><g clip-path="url(#27f3e5f4ee)"><g clip-path="url(#34e60f2805)"><path fill="#2472c8" d="M 26.574219 0.875 L 199.046875 100.9375 L 173.277344 145.355469 L 0.800781 45.296875 Z M 26.574219 0.875 " fill-opacity="1" fill-rule="nonzero"/></g></g></g></g></g></g><g clip-path="url(#d25d043f20)"><g clip-path="url(#4caa4a7220)"><g clip-path="url(#7730be1d07)"><g transform="matrix(1, 0, 0, 1, 278, 55)"><g clip-path="url(#fefeb93263)"><g clip-path="url(#d87435394d)"><g clip-path="url(#785f0a8ae3)"><g clip-path="url(#0cfba958f0)"><path fill="#2472c8" d="M 85.335938 109.355469 L -25.164062 45.25 L 0.683594 0.699219 L 111.183594 64.808594 Z M 85.335938 109.355469 " fill-opacity="1" fill-rule="nonzero"/></g></g></g></g></g></g></g></g></g></g><g clip-path="url(#ff775e4e83)"><g clip-path="url(#3dc46a7056)"><g transform="matrix(1, 0, 0, 1, 10, 258)"><g clip-path="url(#d2f781035f)"><g clip-path="url(#4405e809a9)"><g clip-path="url(#3016a1531d)"><rect x="-92.5" width="540" fill="#102347" height="539.999987" y="-340.499998" fill-opacity="1"/></g></g></g></g></g></g><g clip-path="url(#db24a52511)"><g clip-path="url(#55384d9e7f)"><g transform="matrix(1, 0, 0, 1, 115, 319)"><g clip-path="url(#5c5842e97b)"><g clip-path="url(#d2a38cf142)"><g clip-path="url(#c88e44c355)"><rect x="-197.5" width="540" fill="#102347" height="539.999987" y="-401.499998" fill-opacity="1"/></g></g></g></g></g></g><g clip-path="url(#c435968516)"><g clip-path="url(#94c212267a)"><g transform="matrix(1, 0, 0, 1, 327, 205)"><g clip-path="url(#80bcb88662)"><g clip-path="url(#f6b2d36586)"><g clip-path="url(#0b202b7e55)"><path fill="#102347" d="M 0.105469 49.339844 L 0.105469 0.683594 L 42.621094 0.683594 L 42.621094 49.339844 Z M 0.105469 49.339844 " fill-opacity="1" fill-rule="nonzero"/></g></g></g></g></g></g><g clip-path="url(#367e8f2cef)"><g clip-path="url(#d7a52536fa)"><g transform="matrix(1, 0, 0, 1, 11, 215)"><g clip-path="url(#7cc82b3aa0)"><g clip-path="url(#711725c381)"><g clip-path="url(#952f3e31e8)"><path fill="#102347" d="M 176.839844 147.15625 L 0.199219 44.679688 L 25.96875 0.257812 L 202.609375 102.738281 Z M 176.839844 147.15625 " fill-opacity="1" fill-rule="nonzero"/></g></g></g></g></g></g><g clip-path="url(#1fbaa9ad9f)"><g clip-path="url(#0bf19397a3)"><g clip-path="url(#fe1058b85f)"><g transform="matrix(1, 0, 0, 1, 133, 93)"><g clip-path="url(#5ce6fc8d35)"><g clip-path="url(#53bfcd8d88)"><g clip-path="url(#eb7318045c)"><g clip-path="url(#4ab031d079)"><path fill="#102347" d="M 50.8125 85.046875 L -21.222656 44.691406 L 21.339844 -31.28125 L 93.375 9.074219 Z M 50.8125 85.046875 " fill-opacity="1" fill-rule="nonzero"/></g></g></g></g></g></g></g></g><g clip-path="url(#986af783d7)"><g clip-path="url(#6862acfa77)"><g transform="matrix(1, 0, 0, 1, 161, 210)"><g clip-path="url(#3d274b5a0b)"><g clip-path="url(#5bd55d47c8)"><g clip-path="url(#289908b716)"><path fill="#102347" d="M 208.613281 44.394531 L 26.941406 152.164062 L 0.738281 107.996094 L 182.414062 0.226562 Z M 208.613281 44.394531 " fill-opacity="1" fill-rule="nonzero"/></g></g></g></g></g></g><g clip-path="url(#8df8ebc832)"><g clip-path="url(#dd1bdedc5c)"><g transform="matrix(1, 0, 0, 1, 171, 105)"><g clip-path="url(#fa8f3523d7)"><g clip-path="url(#0605025f8f)"><g clip-path="url(#d78778162d)"><path fill="#102347" d="M 172.847656 145.285156 L 0.371094 45.222656 L 26.140625 0.804688 L 198.617188 100.863281 Z M 172.847656 145.285156 " fill-opacity="1" fill-rule="nonzero"/></g></g></g></g></g></g><g clip-path="url(#f5461dcdc0)"><g clip-path="url(#74b634c871)"><g clip-path="url(#c98512a1a4)"><g transform="matrix(1, 0, 0, 1, 7, 197)"><g clip-path="url(#da70f3cd8e)"><g clip-path="url(#5999d32895)"><g clip-path="url(#de1ad0e548)"><g clip-path="url(#22da3110d6)"><path fill="#102347" d="M 0.0820312 0.804688 L 110.582031 64.914062 L 84.738281 109.460938 L -25.761719 45.351562 Z M 0.0820312 0.804688 " fill-opacity="1" fill-rule="nonzero"/></g></g></g></g></g></g></g></g></svg>